<?xml version="1.0" encoding="utf-8"?>
<!-- Generator: Adobe Illustrator 16.0.0, SVG Export Plug-In . SVG Version: 6.00 Build 0)  -->
<!DOCTYPE svg PUBLIC "-//W3C//DTD SVG 1.1//EN" "http://www.w3.org/Graphics/SVG/1.1/DTD/svg11.dtd">
<svg version="1.1" xmlns="http://www.w3.org/2000/svg" xmlns:xlink="http://www.w3.org/1999/xlink" x="0px" y="0px"
	 width="300.919px" height="42.529px" viewBox="0 0 300.919 42.529" enable-background="new 0 0 300.919 42.529"
	 xml:space="preserve">
<g id="Layer_1">
	<g>
		<g>
			<path fill="#FFFFFF" d="M6.547,30.479c-2.027,0-3.601-0.64-4.721-1.92c-0.906-0.933-1.479-2.199-1.72-3.8
				c-0.054-0.453-0.087-0.853-0.1-1.2c-0.014-0.346-0.007-0.586,0.02-0.72V7.16c0-1.227,0.193-2.293,0.58-3.2
				c0.387-0.906,0.887-1.653,1.5-2.24c0.613-0.586,1.307-1.02,2.08-1.3S5.746,0,6.547,0c1.706,0,3.16,0.533,4.359,1.6
				c0.507,0.454,0.993,1.127,1.46,2.021s0.7,2.087,0.7,3.58c0,0.373-0.14,0.7-0.42,0.979c-0.28,0.28-0.606,0.42-0.979,0.42
				c-0.4,0-0.74-0.14-1.021-0.42c-0.28-0.279-0.42-0.606-0.42-0.979c0-1.014-0.153-1.813-0.46-2.4
				c-0.307-0.586-0.66-1.026-1.06-1.32C8.307,3.187,7.899,3,7.486,2.92S6.76,2.8,6.547,2.8c-0.96,0-1.787,0.307-2.48,0.92
				c-0.827,0.774-1.24,1.92-1.24,3.44v15.8V23c0,0.026,0,0.167,0,0.42c0,0.254,0.026,0.566,0.08,0.94
				c0.054,0.373,0.153,0.773,0.301,1.199c0.146,0.427,0.38,0.801,0.699,1.12c0.587,0.641,1.467,0.96,2.641,0.96
				c1.253,0,2.173-0.333,2.76-1c0.293-0.319,0.52-0.68,0.68-1.08c0.16-0.399,0.273-0.772,0.34-1.12
				c0.066-0.346,0.101-0.76,0.101-1.239v-0.04v-5.08h-2.8c-0.4,0-0.74-0.141-1.021-0.42c-0.28-0.28-0.42-0.62-0.42-1.021
				c0-0.373,0.14-0.7,0.42-0.979c0.28-0.28,0.62-0.42,1.021-0.42h5.6v7.84c0.026,0.106,0.033,0.334,0.02,0.68
				c-0.014,0.347-0.06,0.747-0.14,1.2c-0.294,1.467-0.867,2.667-1.72,3.6C10.187,29.84,8.573,30.479,6.547,30.479z"/>
			<path fill="#FFFFFF" d="M64.666,28.16c0.16,0.373,0.174,0.74,0.04,1.1c-0.134,0.36-0.387,0.607-0.76,0.74
				c-0.106,0.053-0.207,0.086-0.3,0.1c-0.094,0.014-0.18,0.021-0.26,0.021c-0.294,0-0.554-0.067-0.78-0.2s-0.407-0.347-0.54-0.64
				l-4.8-11h-4.16V28.72c0,0.4-0.14,0.734-0.42,1c-0.28,0.267-0.62,0.4-1.021,0.4c-0.373,0-0.699-0.134-0.979-0.4
				c-0.28-0.266-0.42-0.6-0.42-1V1.8c0-0.399,0.14-0.74,0.42-1.02c0.28-0.28,0.606-0.42,0.979-0.42h5.96
				c0.854,0,1.674,0.26,2.461,0.779c0.786,0.521,1.485,1.247,2.1,2.181c0.533,0.854,0.946,1.8,1.24,2.84
				c0.293,1.04,0.439,2.094,0.439,3.16c0,1.094-0.146,2.159-0.439,3.199c-0.294,1.04-0.707,1.987-1.24,2.841
				c-0.667,1.014-1.387,1.746-2.16,2.199L64.666,28.16z M53.106,15.479h4.52c0.347,0,0.714-0.146,1.101-0.439
				c0.386-0.293,0.74-0.693,1.06-1.2c0.4-0.613,0.714-1.313,0.94-2.1s0.34-1.594,0.34-2.42c0-0.801-0.113-1.594-0.34-2.381
				c-0.227-0.786-0.54-1.485-0.94-2.1c-0.319-0.533-0.674-0.939-1.06-1.22C58.34,3.34,57.973,3.2,57.626,3.2h-4.52V15.479z"/>
			<path fill="#FFFFFF" d="M112.866,28.88c0.08,0.374,0.013,0.714-0.2,1.021c-0.214,0.306-0.494,0.5-0.84,0.579h-0.24
				c-0.294,0-0.567-0.1-0.82-0.3c-0.254-0.2-0.406-0.446-0.46-0.74l-1.08-5.199h-6.479l-1.04,5.199
				c-0.054,0.294-0.207,0.54-0.46,0.74c-0.254,0.2-0.54,0.3-0.86,0.3h-0.24c-0.347-0.079-0.619-0.273-0.819-0.579
				c-0.2-0.307-0.261-0.646-0.181-1.021l5.561-27.64c0.026-0.106,0.053-0.174,0.08-0.2V1V0.96c0.053-0.133,0.12-0.227,0.2-0.28V0.6
				h0.04V0.56h0.039V0.52h0.04v-0.04h0.04c0.054-0.053,0.106-0.093,0.16-0.119s0.12-0.054,0.2-0.08V0.24h0.04
				c0.053-0.026,0.113-0.04,0.18-0.04s0.127-0.014,0.181-0.04h0.04h0.08h0.039c0.054,0.026,0.113,0.04,0.181,0.04
				c0.066,0,0.126,0.014,0.18,0.04h0.04v0.04c0.106,0.026,0.187,0.054,0.24,0.08c0.053,0.026,0.106,0.066,0.16,0.119h0.04v0.04h0.04
				v0.04h0.04V0.6l0.04,0.08c0.025,0.054,0.06,0.101,0.1,0.141s0.073,0.087,0.1,0.14V1v0.04c0.026,0.026,0.04,0.094,0.04,0.2
				L112.866,28.88z M108.706,21.64l-2.76-13.52l-2.681,13.52H108.706z"/>
			<path fill="#FFFFFF" d="M200.945,30.12c-0.399,0-0.733-0.141-1-0.42c-0.267-0.28-0.399-0.606-0.399-0.98V1.76
				c0-0.373,0.133-0.7,0.399-0.979c0.267-0.28,0.601-0.42,1-0.42c0.373,0,0.7,0.14,0.98,0.42c0.279,0.279,0.42,0.606,0.42,0.979
				v26.96c0,0.374-0.141,0.7-0.42,0.98C201.646,29.979,201.318,30.12,200.945,30.12z"/>
			<path fill="#FFFFFF" d="M253.365,0.78c0.28,0.279,0.42,0.62,0.42,1.02c0,0.374-0.14,0.7-0.42,0.98
				c-0.28,0.279-0.607,0.42-0.98,0.42h-4.84v25.52c0,0.4-0.134,0.734-0.399,1c-0.268,0.267-0.601,0.4-1,0.4
				c-0.374,0-0.7-0.134-0.98-0.4c-0.28-0.266-0.42-0.6-0.42-1V3.2h-4.92c-0.4,0-0.74-0.141-1.021-0.42
				c-0.279-0.28-0.42-0.606-0.42-0.98c0-0.399,0.141-0.74,0.42-1.02c0.28-0.28,0.62-0.42,1.021-0.42h12.56
				C252.758,0.36,253.085,0.5,253.365,0.78z"/>
			<path fill="#FFFFFF" d="M300.024,0.52c0.373,0.134,0.634,0.374,0.78,0.721s0.153,0.707,0.021,1.08l-5.08,12.8v13.6
				c0,0.4-0.134,0.734-0.4,1c-0.267,0.267-0.6,0.4-1,0.4c-0.374,0-0.7-0.134-0.979-0.4c-0.28-0.266-0.421-0.6-0.421-1v-13.6
				l-5.079-12.8c-0.134-0.373-0.127-0.733,0.02-1.08s0.406-0.587,0.78-0.721c0.373-0.159,0.739-0.166,1.1-0.02
				s0.606,0.407,0.74,0.78l3.84,9.76l3.84-9.76c0.134-0.373,0.38-0.634,0.74-0.78S299.651,0.36,300.024,0.52z"/>
		</g>
		<g>
			<path fill="#2BB673" d="M161.881,13.049c0.399,0.08,0.706,0.287,0.92,0.62c0.213,0.333,0.279,0.687,0.2,1.06l-5.4,26.68
				c-0.08,0.32-0.254,0.587-0.521,0.8s-0.56,0.32-0.88,0.32h-0.08h-0.119c-0.32,0-0.614-0.106-0.881-0.32s-0.427-0.48-0.479-0.8
				l-5.4-26.68c-0.08-0.373-0.014-0.727,0.2-1.06c0.213-0.333,0.506-0.54,0.88-0.62c0.373-0.08,0.727-0.006,1.061,0.22
				c0.333,0.227,0.54,0.527,0.62,0.9l4.119,20.28l4.12-20.28c0.08-0.373,0.28-0.673,0.601-0.9
				C161.16,13.042,161.507,12.969,161.881,13.049z"/>
		</g>
	</g>
</g>
<g id="Layer_2">
</g>
</svg>
